<?xml version="1.0" standalone="no"?>
<!DOCTYPE svg PUBLIC "-//W3C//DTD SVG 20010904//EN"
 "http://www.w3.org/TR/2001/REC-SVG-20010904/DTD/svg10.dtd">
<svg version="1.0" xmlns="http://www.w3.org/2000/svg"
 width="656.000000pt" height="668.000000pt" viewBox="0 0 656.000000 668.000000"
 preserveAspectRatio="xMidYMid meet">

<g transform="translate(0.000000,668.000000) scale(0.100000,-0.100000)"
fill="#000000" stroke="none">
<path d="M2140 6238 c-112 -31 -170 -158 -121 -263 32 -69 102 -115 175 -115
96 0 176 80 176 175 l0 35 -90 0 -90 0 0 -35 c0 -35 0 -35 45 -35 25 0 45 -4
45 -8 0 -19 -41 -44 -79 -49 -36 -5 -44 -2 -76 30 -27 27 -35 43 -35 71 0 44
22 91 49 106 36 19 90 12 117 -15 l24 -24 35 20 c29 17 33 24 25 39 -13 24
-56 54 -99 68 -39 14 -53 14 -101 0z"/>
<path d="M4565 6190 c-3 -6 -4 -19 0 -29 8 -26 -4 -51 -26 -51 -30 0 -27 -58
3 -62 22 -3 22 -7 19 -90 l-3 -88 46 0 46 0 0 90 c0 89 0 90 25 90 21 0 25 5
25 30 0 25 -4 30 -25 30 -23 0 -25 4 -25 45 l0 45 -39 0 c-22 0 -43 -5 -46
-10z"/>
<path d="M2523 6105 c-18 -8 -33 -10 -33 -5 0 6 -16 10 -35 10 l-35 0 0 -120
0 -120 40 0 40 0 0 68 c0 77 16 102 64 102 25 0 27 3 24 37 -3 43 -17 49 -65
28z"/>
<path d="M2668 6105 c-55 -31 -77 -120 -45 -182 21 -39 78 -67 121 -58 17 3
55 5 84 5 l52 -1 0 121 0 121 -52 -1 c-29 0 -71 2 -93 5 -26 3 -50 0 -67 -10z
m121 -92 c16 -36 -8 -73 -49 -73 -35 0 -55 29 -46 66 12 47 75 51 95 7z"/>
<path d="M3249 6097 c-47 -31 -66 -91 -47 -149 26 -82 126 -115 198 -65 43 29
46 41 14 56 -20 9 -34 9 -60 -1 -36 -13 -63 -5 -72 20 -3 9 21 12 82 12 l86 0
0 28 c0 94 -120 154 -201 99z m99 -49 c21 -21 13 -28 -28 -28 -42 0 -52 12
-22 29 23 14 36 13 50 -1z"/>
<path d="M3597 6113 c-4 -4 -30 -6 -57 -4 l-50 2 0 -121 0 -120 40 0 40 0 0
63 c0 101 17 130 61 107 16 -9 19 -22 19 -90 l0 -80 40 0 40 0 0 80 c0 68 3
81 19 90 44 23 61 -6 61 -107 l0 -63 40 0 40 0 0 80 c0 95 -18 146 -55 160
-38 14 -77 12 -103 -6 -20 -14 -24 -14 -44 0 -23 16 -79 22 -91 9z"/>
<path d="M3989 6097 c-41 -27 -59 -60 -59 -107 0 -105 122 -167 211 -107 42
28 59 60 59 113 0 100 -124 160 -211 101z m122 -79 c15 -28 3 -67 -24 -77 -27
-10 -65 5 -72 31 -20 61 66 102 96 46z"/>
<path d="M4357 6113 c-4 -3 -32 -5 -62 -4 l-55 2 0 -121 0 -120 45 0 45 0 0
80 c0 68 3 81 19 90 25 13 27 13 45 -6 12 -11 16 -36 16 -90 l0 -74 40 0 40 0
0 85 c0 91 -14 136 -49 155 -22 11 -74 14 -84 3z"/>
<path d="M2924 6058 c89 -197 83 -188 120 -188 34 0 36 3 76 88 23 48 49 102
56 120 l14 32 -43 0 -44 0 -27 -62 -28 -63 -30 63 -30 62 -44 0 -44 0 24 -52z"/>
<path d="M2590 5470 l0 -190 45 0 45 0 0 78 c0 76 9 102 36 102 31 0 44 -31
44 -106 l0 -74 40 0 40 0 0 88 c0 131 -34 174 -128 158 l-37 -5 3 69 4 70 -46
0 -46 0 0 -190z"/>
<path d="M3500 5470 l0 -190 40 0 40 0 0 190 0 190 -40 0 -40 0 0 -190z"/>
<path d="M1840 5610 l0 -40 40 0 40 0 0 -145 0 -145 45 0 45 0 0 145 0 145 45
0 45 0 0 40 0 40 -130 0 -130 0 0 -40z"/>
<path d="M4262 5638 c-17 -17 -15 -53 3 -68 20 -17 62 -5 70 20 14 44 -41 80
-73 48z"/>
<path d="M2116 5498 c-63 -63 -52 -155 23 -205 42 -28 80 -29 130 -3 49 25 57
44 24 59 -20 9 -33 9 -55 0 -22 -9 -35 -9 -53 -1 -47 22 -27 32 60 32 85 0 85
0 85 26 0 39 -27 88 -59 107 -16 9 -50 17 -76 17 -40 0 -52 -5 -79 -32z m108
-34 c33 -13 17 -34 -24 -34 -41 0 -49 7 -28 28 13 13 28 15 52 6z"/>
<path d="M2404 5497 c-31 -28 -37 -41 -41 -83 -5 -60 18 -103 70 -127 67 -32
121 -12 115 42 -3 23 -7 26 -40 23 -30 -3 -40 1 -53 21 -30 47 10 96 68 82 23
-6 25 -4 23 32 l-1 38 -52 3 c-47 3 -56 0 -89 -31z"/>
<path d="M2890 5405 l0 -125 40 0 40 0 0 74 c0 90 18 118 64 100 13 -5 16 -23
16 -90 l0 -84 45 0 45 0 0 68 c-1 90 -14 142 -42 164 -25 19 -79 23 -108 8
-13 -7 -21 -7 -25 0 -3 5 -22 10 -41 10 l-34 0 0 -125z"/>
<path d="M3233 5509 c-18 -11 -38 -37 -47 -60 -44 -109 64 -208 179 -165 51
20 76 54 82 110 5 47 -25 102 -67 123 -38 19 -110 16 -147 -8z m104 -57 c6 -4
16 -19 22 -33 19 -52 -44 -93 -83 -53 -42 42 12 117 61 86z"/>
<path d="M3694 5520 c-39 -15 -74 -68 -74 -111 0 -75 42 -123 118 -135 82 -13
152 49 152 135 0 37 -6 49 -39 82 -35 35 -44 39 -87 38 -27 0 -58 -4 -70 -9z
m96 -80 c52 -52 -17 -123 -72 -73 -10 9 -18 24 -18 35 0 22 34 58 55 58 8 0
24 -9 35 -20z"/>
<path d="M3988 5514 c-35 -19 -58 -63 -58 -111 1 -96 87 -155 173 -118 13 5
17 2 17 -13 0 -47 -62 -69 -94 -34 -9 11 -31 19 -51 20 -28 1 -35 -2 -35 -18
0 -10 10 -31 23 -46 22 -25 28 -27 107 -25 46 1 88 4 93 8 26 16 37 77 37 213
l0 140 -34 0 c-19 0 -38 -5 -41 -10 -4 -7 -12 -7 -25 0 -27 14 -80 12 -112 -6z
m112 -74 c24 -24 26 -53 4 -74 -32 -33 -94 -10 -94 35 0 23 34 59 55 59 8 0
24 -9 35 -20z"/>
<path d="M4257 5523 c-4 -3 -7 -60 -7 -125 l0 -118 40 0 40 0 0 125 0 125 -33
0 c-19 0 -37 -3 -40 -7z"/>
<path d="M4428 5507 c-36 -30 -48 -58 -48 -110 0 -69 60 -127 131 -127 30 0
88 29 99 51 8 15 5 21 -16 32 -24 12 -31 12 -55 -1 -22 -13 -32 -14 -53 -4
-48 22 -29 32 59 32 l85 0 0 30 c0 43 -25 87 -60 105 -44 23 -110 19 -142 -8z
m112 -57 c10 -19 8 -20 -35 -20 -46 0 -54 7 -33 28 19 19 56 14 68 -8z"/>
<path d="M4700 5517 c-30 -15 -45 -54 -36 -92 5 -20 19 -32 56 -48 28 -12 50
-25 50 -29 0 -11 -38 -10 -60 2 -15 8 -22 5 -39 -19 l-20 -28 26 -14 c43 -23
117 -18 147 10 50 47 25 124 -45 138 -16 3 -32 10 -35 14 -9 15 23 21 45 10
17 -10 23 -7 38 15 16 25 16 27 -2 40 -23 17 -92 18 -125 1z"/>
<path d="M1740 4420 l0 -340 340 0 340 0 0 340 0 340 -340 0 -340 0 0 -340z
m588 3 l2 -243 -245 0 -245 0 0 245 0 245 243 -2 242 -3 3 -242z"/>
<path d="M1940 4425 l0 -145 145 0 145 0 0 145 0 145 -145 0 -145 0 0 -145z"/>
<path d="M2620 4715 l0 -45 50 0 50 0 0 -50 0 -50 -49 0 -50 0 -3 48 -3 47
-45 0 -45 0 -3 -47 -3 -48 50 0 51 0 0 -50 0 -50 50 0 50 0 0 -50 0 -50 45 0
45 0 0 50 0 50 50 0 50 0 0 50 0 50 -50 0 -50 0 0 50 0 50 50 0 50 0 0 45 0
45 -50 0 -50 0 0 -45 0 -45 -45 0 -45 0 0 45 0 45 -50 0 -50 0 0 -45z m190
-195 l0 -50 -45 0 -45 0 0 50 0 50 45 0 45 0 0 -50z"/>
<path d="M3200 4665 l0 -95 150 0 150 0 0 50 0 50 45 0 45 0 0 -100 0 -100 50
0 50 0 0 50 0 50 50 0 50 0 0 -50 0 -50 50 0 50 0 0 -50 0 -50 45 0 45 0 0
-45 0 -45 50 0 50 0 0 -100 0 -100 -50 0 -50 0 0 50 0 50 -44 0 -45 0 -3 48
-3 47 -47 3 -48 3 0 -50 0 -51 -50 0 -50 0 0 -101 0 -100 -47 3 -48 3 -3 148
-3 147 -44 0 -45 0 0 95 0 95 -50 0 -50 0 0 -145 0 -145 -50 0 -50 0 0 -101 0
-100 -47 3 -48 3 -3 98 -3 97 -44 0 -45 0 0 -50 0 -50 -50 0 -50 0 0 50 0 50
-50 0 -50 0 0 -51 0 -50 -47 3 -48 3 -3 98 -3 97 -44 0 -45 0 0 -195 0 -195
-150 0 -150 0 0 45 0 45 -45 0 -45 0 0 -45 0 -45 -50 0 -50 0 0 45 0 45 -50 0
-50 0 0 -45 0 -45 -50 0 -50 0 0 45 0 45 -45 0 -45 0 0 -45 0 -45 -50 0 -50 0
0 45 0 45 -50 0 -50 0 2 -192 3 -193 48 -3 47 -3 0 100 0 101 50 0 50 0 0 -50
0 -50 45 0 45 0 0 -50 0 -50 -45 0 -45 0 0 -45 0 -45 -50 0 -50 0 0 -50 0 -50
-50 0 -50 0 0 -50 0 -50 50 0 50 0 0 -45 c0 -45 0 -45 -35 -46 -19 -1 -41 -2
-47 -3 -9 -1 -14 -30 -16 -98 l-3 -98 51 0 50 0 0 -50 0 -50 -50 0 -50 0 0
-95 0 -95 49 0 50 0 3 48 3 47 45 0 45 0 3 -47 3 -48 44 0 44 0 3 48 c3 51 -4
47 81 51 13 1 17 10 17 46 l0 45 -50 0 -50 0 0 50 0 50 150 0 150 0 0 -50 0
-50 -50 0 -50 0 0 -44 0 -45 -47 -3 -48 -3 -3 -47 -3 -48 50 0 51 0 0 51 0 50
48 -3 47 -3 3 -47 3 -48 45 0 44 0 0 -50 0 -50 -45 0 -45 0 0 -50 0 -50 -100
0 -100 0 0 50 0 50 -94 0 -95 0 -3 -47 -3 -48 -47 -3 -48 -3 0 50 0 51 -50 0
-50 0 0 -50 0 -50 50 0 50 0 0 -44 0 -45 -47 -3 -48 -3 -3 -47 -3 -48 50 0 51
0 0 50 0 50 95 0 95 0 0 -50 0 -50 195 0 195 0 0 50 0 50 50 0 50 0 0 -100 0
-100 50 0 50 0 0 -50 0 -50 50 0 50 0 0 -45 0 -45 45 0 44 0 3 -147 3 -148 48
-3 47 -3 0 -44 0 -44 -47 -3 -48 -3 -3 -47 -3 -48 150 0 151 0 0 50 0 50 95 0
95 0 0 -50 0 -50 100 0 100 0 0 98 0 97 45 -3 45 -4 0 -44 0 -44 50 0 50 0 0
-50 0 -50 100 0 100 0 0 50 0 50 45 0 45 0 0 -50 0 -50 150 0 150 0 0 50 0 50
45 0 45 0 0 45 0 45 -45 0 -45 0 0 -45 0 -45 -50 0 -50 0 0 48 0 47 47 0 48 0
3 48 3 47 -50 0 -51 0 0 50 0 50 145 0 145 0 0 -195 0 -195 50 0 50 0 0 144 0
145 48 3 47 3 0 95 0 95 -47 3 -48 3 0 95 0 94 50 0 50 0 0 -50 0 -50 95 0 95
0 0 -44 0 -45 -47 -3 -48 -3 -3 -97 -3 -98 51 0 50 0 0 -50 0 -50 -50 0 -50 0
0 -95 0 -95 101 0 100 0 -3 48 -3 47 -47 3 -48 3 0 44 0 44 48 3 47 3 3 98 3
97 -51 0 -50 0 0 50 0 50 50 0 50 0 -2 192 -3 193 -95 0 -95 0 -3 -48 -3 -47
50 0 51 0 0 -50 0 -50 -95 0 -94 0 -3 98 -3 97 -97 3 -98 3 0 144 0 145 -50 0
-50 0 0 -50 0 -50 -95 0 -95 0 0 145 0 145 95 0 95 0 0 -45 0 -45 100 0 100 0
0 -150 0 -150 195 0 196 0 -3 148 -3 147 -47 3 -48 3 0 45 0 44 50 0 50 0 0
100 0 100 -50 0 -50 0 0 -100 0 -100 -50 0 -50 0 0 50 0 50 -45 0 -45 0 0 -50
0 -50 45 0 45 0 0 -45 0 -45 50 0 50 0 0 -49 0 -50 -47 -3 -48 -3 -3 -47 -3
-48 -44 0 -44 0 -3 98 -3 97 -47 3 -48 3 0 45 0 44 -100 0 -100 0 0 50 0 50
50 0 50 0 0 50 0 50 -51 0 -50 0 3 48 3 47 45 0 45 0 3 48 3 47 50 0 49 0 0
50 0 50 50 0 50 0 0 -50 0 -50 44 0 45 0 3 -47 3 -48 45 0 45 0 3 48 3 47 50
0 49 0 -2 293 -3 292 -47 3 -48 3 0 45 0 44 -50 0 -50 0 0 -45 0 -45 50 0 50
0 0 -50 0 -50 -95 0 -95 0 0 -50 0 -50 44 0 45 0 3 -47 3 -48 48 -3 47 -3 0
-95 0 -94 -95 0 -95 0 0 95 0 95 -50 0 -50 0 0 50 0 50 -50 0 -50 0 0 100 0
100 50 0 50 0 0 45 0 45 -50 0 -50 0 0 -45 0 -45 -195 0 -195 0 0 44 0 45 48
3 47 3 3 193 2 192 -50 0 -50 0 0 50 0 50 50 0 50 0 0 50 0 50 -50 0 -50 0 0
95 0 95 -95 0 -95 0 0 -95 0 -95 -49 0 -50 0 -3 48 -3 47 -47 3 -48 3 0 45 0
44 -95 0 -95 0 0 -45 0 -45 -100 0 -100 0 0 45 0 45 -50 0 -50 0 0 -95z m880
-145 l0 -50 -95 0 -95 0 0 50 0 50 95 0 95 0 0 -50z m-585 -390 l0 -45 -47 -3
-48 -3 0 51 0 51 48 -3 47 -3 0 -45z m395 0 l0 -50 -50 0 -50 0 0 50 0 50 50
0 50 0 0 -50z m90 -195 l0 -45 50 0 50 0 0 -151 0 -150 -47 3 -48 3 -3 148 -3
147 -44 0 -45 0 0 -50 0 -50 -50 0 -50 0 0 -145 0 -145 95 0 95 0 0 -50 0 -50
-44 0 -45 0 -3 -47 -3 -48 -47 -3 -48 -3 0 -240 0 -239 95 0 95 0 0 45 0 45
-45 0 -45 0 0 50 0 50 45 0 45 0 0 50 0 50 -45 0 -45 0 0 49 0 50 45 -4 45 -5
0 50 0 50 150 0 150 0 0 50 0 50 45 0 45 0 0 50 0 50 -95 0 -95 0 0 -50 0 -50
-50 0 -50 0 0 50 0 50 50 0 50 0 0 95 0 95 50 0 50 0 0 -50 0 -50 45 0 45 0 0
-45 0 -45 50 0 50 0 0 44 0 45 -47 3 -48 3 -3 48 -3 47 50 0 51 0 0 -50 0 -50
50 0 50 0 0 -95 0 -95 -50 0 -50 0 0 -50 0 -50 -94 0 -95 0 -3 -47 -3 -48
-145 -2 -145 -2 -3 -45 -3 -45 148 -3 148 -3 3 -47 3 -48 -50 0 -51 0 0 -50 0
-50 -50 0 -50 0 0 -145 0 -145 50 0 50 0 0 -50 0 -50 50 0 50 0 0 -45 0 -45
-50 0 -50 0 0 45 0 45 -50 0 -50 0 0 50 0 50 -50 0 -50 0 0 50 0 50 -435 0
-435 0 0 -50 0 -50 -50 0 -50 0 0 -50 0 -50 -50 0 -50 0 0 -44 0 -45 -47 -3
-48 -3 -3 -47 -3 -48 100 0 101 0 0 51 0 50 48 -3 47 -3 3 -97 3 -98 44 0 45
0 0 50 0 50 50 0 50 0 0 -50 0 -50 50 0 50 0 0 50 0 50 50 0 50 0 0 50 0 50
45 0 45 0 0 45 0 45 50 0 50 0 0 -45 0 -45 -50 0 -50 0 0 -50 0 -50 150 0 150
0 0 95 0 95 -50 0 -50 0 0 50 0 50 50 0 50 0 0 -50 0 -50 45 0 45 0 0 -45 0
-45 50 0 50 0 0 -100 0 -100 -94 0 -95 0 -3 -47 -3 -48 -47 -3 -48 -3 0 50 0
51 -50 0 -50 0 0 -50 0 -50 -50 0 -50 0 0 -145 0 -145 50 0 50 0 0 50 0 50 50
0 50 0 0 51 0 50 48 -3 47 -3 3 -47 3 -48 45 0 44 0 0 95 0 95 50 0 50 0 0
-145 0 -145 -94 0 -95 0 -3 -47 -3 -48 -48 0 -47 0 0 -47 0 -48 -50 0 -50 0 0
44 0 45 -47 3 -48 3 -3 48 -3 47 -44 0 -44 0 -3 48 -3 47 -47 3 -48 3 0 -145
0 -146 -50 0 -50 0 0 45 0 45 -95 0 -95 0 0 50 0 50 -100 0 -100 0 0 50 0 50
50 0 50 0 0 145 0 145 -50 0 -50 0 0 -95 0 -95 -50 0 -50 0 0 45 0 45 -45 0
-45 0 0 50 0 50 -50 0 -50 0 0 50 0 50 50 0 50 0 0 95 0 95 -100 0 -100 0 0
50 0 50 100 0 100 0 0 100 0 101 -195 -3 -195 -3 0 48 0 47 95 0 95 0 0 50 0
50 50 0 50 0 0 50 0 50 50 0 50 0 0 49 0 48 43 -1 42 -1 3 48 3 47 -95 0 -96
0 0 195 0 195 -50 0 -50 0 0 -50 0 -50 -95 0 -95 0 0 50 0 50 45 0 45 0 0 50
0 50 -45 0 -45 0 0 50 0 50 45 0 45 0 0 -50 0 -50 194 0 195 0 3 -47 3 -48 48
-3 47 -3 0 -50 0 -50 48 3 47 3 3 47 3 47 47 3 47 3 3 48 3 47 -50 0 -51 0 0
50 0 50 145 0 145 0 0 -100 0 -100 -51 0 -50 0 3 -47 3 -48 98 -3 97 -3 0 50
0 50 48 3 47 3 3 48 3 47 -50 0 -51 0 0 50 0 50 145 0 145 0 0 -50 0 -50 50 0
50 0 0 50 0 50 50 0 50 0 0 45 0 45 45 0 45 0 0 -45z m-1750 -145 l0 -100
-100 0 -100 0 0 50 0 50 50 0 50 0 0 50 0 50 50 0 50 0 0 -100z m0 -245 l0
-45 145 0 145 0 0 -195 0 -195 -50 0 -50 0 0 -50 0 -50 -45 0 -45 0 0 50 0 50
-50 0 -50 0 0 48 0 47 -47 0 -48 0 -3 48 -3 47 -50 0 -49 0 0 -48 0 -48 -42 0
-43 1 -3 48 -3 47 -50 0 -49 0 0 50 0 50 195 0 195 0 0 50 0 50 -100 0 -100 0
0 45 0 45 100 0 100 0 0 -45z m-290 -387 l0 -48 45 0 45 0 0 -50 0 -50 -95 0
-95 0 0 94 c0 104 1 106 63 103 l37 -1 0 -48z m90 -292 l0 -44 -45 -4 -45 -3
0 47 0 48 45 0 45 0 0 -44z m1468 -293 l-3 -48 -47 -3 -48 -3 0 50 0 51 51 0
50 0 -3 -47z m-1078 -98 l0 -45 -45 0 -45 0 0 45 0 45 45 0 45 0 0 -45z m880
0 l0 -45 -50 0 -50 0 0 45 0 45 50 0 50 0 0 -45z m1170 -290 l0 -145 -145 0
-145 0 0 145 0 145 145 0 145 0 0 -145z m-390 -490 l0 -45 -50 0 -50 0 0 45 0
45 50 0 50 0 0 -45z"/>
<path d="M3155 3488 c-13 -58 -91 -579 -87 -583 3 -3 38 -5 78 -5 83 0 73 -14
94 130 6 41 13 82 16 90 3 12 24 15 95 17 97 2 146 21 196 75 82 87 64 222
-36 275 -41 21 -56 23 -197 23 -151 0 -154 0 -159 -22z"/>
<path d="M2720 3450 l0 -50 45 0 45 0 0 -50 0 -50 50 0 50 0 0 100 0 100 -95
0 -95 0 0 -50z"/>
<path d="M2810 3159 l0 -49 -45 0 -45 0 0 -50 0 -50 45 0 45 0 0 -50 0 -50
-45 0 -45 0 0 -45 0 -45 45 0 45 0 0 -50 0 -50 50 0 50 0 0 -50 0 -50 50 0 50
0 0 50 0 50 -50 0 -50 0 0 50 0 50 -50 0 -50 0 0 45 0 45 50 0 50 0 0 148 0
147 -50 1 -50 2 0 -49z"/>
<path d="M2720 2570 l0 -50 45 0 45 0 0 50 0 50 -45 0 -45 0 0 -50z"/>
<path d="M2720 2280 l0 -50 45 0 45 0 0 50 0 50 -45 0 -45 0 0 -50z"/>
<path d="M3500 2280 l0 -50 -50 0 -50 0 0 -51 0 -50 48 3 47 3 3 48 3 47 45 0
44 0 0 50 0 50 -45 0 -45 0 0 -50z"/>
<path d="M3110 2085 l0 -45 45 0 45 0 0 45 0 45 -45 0 -45 0 0 -45z"/>
<path d="M3110 1890 l0 -50 95 0 95 0 0 50 0 50 -95 0 -95 0 0 -50z"/>
<path d="M3790 1890 l0 -50 -50 0 -50 0 0 -51 0 -50 48 3 47 3 3 48 3 47 50 0
49 0 0 50 0 50 -50 0 -50 0 0 -50z"/>
<path d="M2232 3303 l3 -98 48 2 47 2 0 -50 0 -49 45 0 45 0 0 48 0 47 -42 0
-43 0 -3 48 -3 47 45 0 46 0 0 50 0 50 -95 0 -96 0 3 -97z"/>
<path d="M4280 2180 l0 -50 45 0 45 0 0 50 0 50 -45 0 -45 0 0 -50z"/>
<path d="M4280 4420 l0 -340 340 0 340 0 0 340 0 340 -340 0 -340 0 0 -340z
m580 5 l0 -245 -245 0 -245 0 0 238 c0 131 3 242 7 245 3 4 114 7 245 7 l238
0 0 -245z"/>
<path d="M4477 4563 c-4 -3 -7 -69 -7 -145 l0 -138 145 0 145 0 0 145 0 145
-138 0 c-76 0 -142 -3 -145 -7z"/>
<path d="M3010 4621 l0 -51 51 0 50 0 -3 48 -3 47 -47 3 -48 3 0 -50z"/>
<path d="M3010 4419 l0 -50 48 3 47 3 3 48 3 47 -50 0 -51 0 0 -51z"/>
<path d="M3202 4423 l3 -48 48 -3 47 -3 0 50 0 51 -51 0 -50 0 3 -47z"/>
<path d="M2520 4325 l0 -45 50 0 50 0 0 45 0 45 -50 0 -50 0 0 -45z"/>
<path d="M2520 4130 l0 -50 50 0 50 0 0 50 0 50 -50 0 -50 0 0 -50z"/>
<path d="M4570 3158 l0 -48 51 0 50 0 -3 48 -3 47 -47 0 -48 0 0 -47z"/>
<path d="M1740 1890 l0 -340 340 0 340 0 0 340 0 340 -340 0 -340 0 0 -340z
m590 0 l0 -240 -245 0 -245 0 0 240 0 240 245 0 245 0 0 -240z"/>
<path d="M1940 1893 l0 -143 145 0 146 0 -3 140 -3 141 -143 2 -142 2 0 -142z"/>
<path d="M2520 1991 l0 -51 50 0 50 0 0 -50 0 -50 -51 0 -50 0 3 -47 3 -48 48
-3 47 -3 0 -45 0 -44 -50 0 -50 0 0 -50 0 -50 100 0 100 0 0 195 0 195 -49 0
-50 0 -3 48 -3 47 -47 3 -48 3 0 -50z"/>
<path d="M923 755 c-27 -12 -33 -20 -33 -45 0 -28 5 -33 55 -55 30 -14 55 -31
55 -38 0 -38 -61 -50 -82 -17 -13 21 -38 27 -38 10 0 -24 41 -50 78 -50 90 0
97 93 10 115 -33 8 -52 30 -44 50 7 20 45 19 67 -1 26 -24 45 -13 22 13 -25
29 -52 35 -90 18z"/>
<path d="M2553 755 c-38 -16 -53 -42 -53 -90 0 -46 24 -92 52 -101 33 -10 77
-7 94 7 10 8 14 8 14 0 0 -6 7 -11 15 -11 12 0 15 13 15 55 l0 55 -50 0 c-38
0 -50 -4 -50 -15 0 -10 11 -15 35 -15 41 0 47 -20 13 -44 -51 -36 -108 -2
-108 64 0 68 73 107 115 60 10 -11 24 -20 32 -20 22 0 -3 37 -37 55 -35 18
-46 18 -87 0z"/>
<path d="M4050 750 c0 -5 11 -10 25 -10 25 0 25 -1 25 -90 0 -73 3 -90 15 -90
12 0 15 17 15 90 l0 90 30 0 c17 0 30 5 30 10 0 6 -30 10 -70 10 -40 0 -70 -4
-70 -10z"/>
<path d="M4530 660 c0 -81 3 -100 15 -100 10 0 15 15 17 56 6 104 68 96 68 -8
0 -36 4 -48 15 -48 22 0 21 98 -1 129 -14 19 -23 22 -50 18 -32 -5 -34 -4 -34
24 0 19 -5 29 -15 29 -12 0 -15 -18 -15 -100z"/>
<path d="M5040 660 c0 -82 3 -100 15 -100 12 0 15 18 15 100 0 82 -3 100 -15
100 -12 0 -15 -18 -15 -100z"/>
<path d="M5460 745 c0 -8 7 -15 15 -15 8 0 15 7 15 15 0 8 -7 15 -15 15 -8 0
-15 -7 -15 -15z"/>
<path d="M1630 731 c0 -11 -6 -22 -12 -25 -10 -5 -10 -7 0 -12 7 -3 12 -26 12
-58 0 -29 5 -57 12 -64 15 -15 48 -16 48 -2 0 6 -7 10 -15 10 -12 0 -15 13
-15 55 0 42 3 55 15 55 8 0 15 5 15 10 0 6 -7 10 -15 10 -8 0 -15 9 -15 20 0
11 -7 20 -15 20 -8 0 -15 -9 -15 -19z"/>
<path d="M3913 733 c-4 -10 -11 -21 -17 -25 -8 -6 -7 -11 3 -17 7 -5 14 -30
15 -58 3 -58 10 -73 37 -73 23 0 25 15 4 24 -10 4 -15 20 -15 51 0 31 5 47 15
51 8 4 15 10 15 15 0 5 -7 9 -15 9 -8 0 -15 9 -15 20 0 25 -18 26 -27 3z"/>
<path d="M1075 685 c-31 -30 -32 -64 -4 -99 18 -23 28 -27 62 -24 24 2 44 10
51 20 15 24 0 34 -22 15 -25 -23 -48 -21 -66 5 -21 29 -20 41 3 69 l19 24 36
-19 c43 -23 56 -16 27 13 -29 29 -76 27 -106 -4z"/>
<path d="M1242 698 c-13 -13 -16 -38 -5 -38 3 0 15 8 25 17 14 13 23 15 35 7
30 -19 24 -30 -18 -40 -49 -11 -70 -35 -53 -61 8 -13 26 -18 69 -20 l57 -1 -4
58 c-2 32 -10 65 -17 74 -16 19 -72 21 -89 4z m78 -81 c0 -20 -22 -37 -47 -37
-27 0 -31 24 -5 39 24 15 52 13 52 -2z"/>
<path d="M1386 690 c-2 -8 -3 -31 -1 -50 2 -19 4 -45 4 -57 2 -39 21 -25 21
15 0 71 19 100 55 86 11 -5 15 -22 15 -65 0 -46 3 -59 15 -59 20 0 22 122 2
139 -21 16 -106 10 -111 -9z"/>
<path d="M1730 690 c-20 -20 -24 -36 -20 -75 7 -71 131 -75 140 -5 8 59 -21
100 -70 100 -17 0 -39 -9 -50 -20z m74 -13 c22 -16 18 -75 -6 -91 -26 -16 -52
4 -56 45 -3 30 15 59 38 59 3 0 14 -6 24 -13z"/>
<path d="M1960 609 c0 -81 3 -99 15 -99 10 0 15 10 15 29 0 25 3 28 25 23 48
-9 73 5 86 48 11 36 10 44 -8 68 -17 23 -28 27 -77 28 l-56 1 0 -98z m108 48
c12 -24 11 -31 -2 -53 -28 -42 -76 -25 -76 27 0 32 25 61 49 57 9 -2 22 -16
29 -31z"/>
<path d="M2152 698 c-13 -13 -16 -38 -5 -38 3 0 15 8 25 17 14 13 23 15 35 7
30 -19 24 -31 -18 -40 -49 -10 -70 -35 -53 -61 8 -13 26 -18 68 -20 l56 -1 0
52 c0 66 -20 96 -64 96 -17 0 -37 -5 -44 -12z m78 -81 c0 -31 -51 -50 -66 -25
-8 13 22 38 48 38 10 0 18 -6 18 -13z"/>
<path d="M2284 694 c39 -99 47 -129 42 -155 -4 -20 -2 -29 8 -29 10 0 28 40
83 188 3 6 -2 12 -10 12 -11 0 -22 -19 -33 -55 -10 -30 -20 -52 -23 -49 -3 3
-13 26 -22 52 -10 29 -23 48 -34 51 -14 2 -16 -1 -11 -15z"/>
<path d="M2730 634 c0 -59 3 -74 15 -74 12 0 15 13 15 56 0 47 3 57 20 61 34
9 23 31 -15 31 l-35 0 0 -74z"/>
<path d="M2842 698 c-13 -13 -16 -38 -5 -38 3 0 15 8 25 17 14 13 23 15 35 7
30 -19 24 -30 -18 -40 -49 -11 -70 -35 -53 -61 8 -13 26 -18 69 -20 l57 -1 -4
58 c-2 32 -10 65 -17 74 -16 19 -72 21 -89 4z m78 -81 c0 -20 -22 -37 -47 -37
-27 0 -31 24 -5 39 24 15 52 13 52 -2z"/>
<path d="M2972 699 c3 -8 15 -42 28 -76 16 -44 28 -63 40 -63 12 0 24 19 40
63 13 34 25 68 27 75 3 6 -2 12 -10 12 -11 0 -22 -19 -33 -55 -10 -30 -20 -55
-23 -55 -4 0 -13 24 -21 52 -11 37 -21 54 -34 56 -13 3 -17 0 -14 -9z"/>
<path d="M3141 684 c-24 -30 -26 -55 -10 -87 16 -30 28 -37 66 -37 33 0 76 31
53 38 -6 2 -17 -1 -23 -7 -16 -16 -43 -14 -61 5 -25 24 -10 34 50 34 53 0 55
1 48 23 -18 62 -86 78 -123 31z m85 -11 c17 -17 17 -18 -9 -21 -15 -2 -37 -2
-49 0 -21 3 -21 4 -4 21 10 9 24 17 31 17 7 0 21 -8 31 -17z"/>
<path d="M3300 634 c0 -59 3 -74 15 -74 12 0 15 13 15 55 0 45 4 56 21 65 33
18 49 -4 49 -66 0 -41 4 -54 15 -54 11 0 15 13 15 53 0 48 12 77 31 77 22 0
39 -35 39 -81 0 -39 3 -49 16 -49 14 0 16 9 11 60 -6 75 -20 94 -61 86 -17 -4
-35 -6 -41 -6 -5 1 -36 2 -67 5 l-58 3 0 -74z"/>
<path d="M3580 690 c-24 -24 -26 -77 -4 -108 11 -16 25 -22 52 -22 43 0 55 7
71 37 16 32 14 57 -10 87 -26 33 -79 36 -109 6z m89 -31 c13 -24 13 -29 -2
-53 -29 -44 -77 -28 -77 25 0 32 25 61 48 57 9 -2 23 -15 31 -29z"/>
<path d="M3740 634 c0 -58 3 -74 15 -74 10 0 15 15 17 56 6 104 68 96 68 -8 0
-36 4 -48 15 -48 19 0 21 83 2 120 -11 22 -20 25 -65 26 l-52 2 0 -74z"/>
<path d="M4205 690 c-11 -12 -19 -36 -19 -55 0 -47 28 -75 74 -75 21 0 43 7
50 15 17 21 4 32 -20 17 -27 -17 -44 -15 -63 6 -23 25 -13 32 50 32 31 0 53 4
53 11 0 15 -21 53 -34 61 -22 15 -73 8 -91 -12z m83 -12 c21 -21 13 -28 -28
-28 -28 0 -40 4 -40 14 0 25 48 34 68 14z"/>
<path d="M4392 703 c-20 -8 -41 -58 -35 -84 15 -60 82 -80 125 -37 26 26 7 39
-21 14 -36 -32 -71 -13 -71 40 0 48 23 62 66 39 41 -22 54 -15 25 14 -20 20
-59 26 -89 14z"/>
<path d="M4694 701 c-2 -2 -4 -35 -4 -73 0 -54 3 -68 15 -68 11 0 15 12 15 48
0 59 20 92 47 76 13 -8 19 -26 21 -68 2 -41 7 -56 17 -56 11 0 15 14 15 56 0
81 -10 94 -71 92 -27 -1 -52 -4 -55 -7z"/>
<path d="M4892 703 c-19 -8 -42 -58 -37 -83 7 -38 35 -60 75 -60 46 0 70 25
70 73 0 59 -52 93 -108 70z m59 -23 c22 -12 27 -68 7 -88 -29 -29 -70 -3 -70
43 0 26 18 55 34 55 5 0 18 -5 29 -10z"/>
<path d="M5120 683 c-17 -21 -20 -36 -16 -63 7 -42 29 -60 73 -60 43 0 73 30
73 73 0 73 -86 106 -130 50z m84 -9 c32 -31 12 -94 -29 -94 -42 0 -59 58 -28
92 20 22 37 23 57 2z"/>
<path d="M5290 683 c-23 -30 -25 -42 -8 -78 13 -28 45 -40 83 -31 27 7 34 -11
13 -32 -15 -15 -54 -16 -63 -2 -10 16 -35 12 -29 -4 8 -22 60 -37 89 -26 35
13 45 40 45 123 l0 73 -55 2 c-47 1 -57 -2 -75 -25z m88 -5 c17 -17 15 -63 -3
-78 -21 -17 -62 -4 -68 22 -12 46 40 87 71 56z"/>
<path d="M5469 698 c-8 -61 -3 -138 8 -138 9 0 13 21 13 75 0 43 -4 75 -10 75
-5 0 -11 -6 -11 -12z"/>
<path d="M5550 690 c-29 -29 -30 -82 -3 -112 19 -22 72 -23 99 -4 24 18 10 34
-16 18 -27 -17 -44 -15 -63 6 -23 25 -13 32 50 32 46 0 53 3 53 20 0 29 -36
60 -70 60 -17 0 -39 -9 -50 -20z m80 -20 c10 -18 8 -20 -30 -20 -41 0 -49 7
-28 28 18 18 46 14 58 -8z"/>
<path d="M5712 698 c-28 -28 -8 -63 45 -77 36 -10 37 -35 1 -39 -16 -2 -28 1
-28 7 0 6 -7 11 -15 11 -18 0 -19 -12 -3 -28 20 -20 75 -15 92 10 20 28 6 54
-34 63 -35 8 -47 22 -31 38 8 8 18 7 36 -3 29 -16 43 -7 25 15 -15 18 -71 20
-88 3z"/>
</g>
</svg>
